<svg id="visual" viewBox="0 0 900 300" width="900" height="300" xmlns="http://www.w3.org/2000/svg" xmlns:xlink="http://www.w3.org/1999/xlink" version="1.1"><rect x="0" y="0" width="900" height="300" fill="#fffd86"></rect><defs><linearGradient id="grad1_0" x1="66.7%" y1="100%" x2="100%" y2="0%"><stop offset="-10%" stop-color="#fea82f" stop-opacity="1"></stop><stop offset="110%" stop-color="#fea82f" stop-opacity="1"></stop></linearGradient></defs><defs><linearGradient id="grad1_1" x1="66.7%" y1="100%" x2="100%" y2="0%"><stop offset="-10%" stop-color="#fea82f" stop-opacity="1"></stop><stop offset="110%" stop-color="#ffbe40" stop-opacity="1"></stop></linearGradient></defs><defs><linearGradient id="grad1_2" x1="66.7%" y1="100%" x2="100%" y2="0%"><stop offset="-10%" stop-color="#ffd455" stop-opacity="1"></stop><stop offset="110%" stop-color="#ffbe40" stop-opacity="1"></stop></linearGradient></defs><defs><linearGradient id="grad1_3" x1="66.7%" y1="100%" x2="100%" y2="0%"><stop offset="-10%" stop-color="#ffd455" stop-opacity="1"></stop><stop offset="110%" stop-color="#ffe96c" stop-opacity="1"></stop></linearGradient></defs><defs><linearGradient id="grad1_4" x1="66.7%" y1="100%" x2="100%" y2="0%"><stop offset="-10%" stop-color="#fffd86" stop-opacity="1"></stop><stop offset="110%" stop-color="#ffe96c" stop-opacity="1"></stop></linearGradient></defs><defs><linearGradient id="grad2_0" x1="0%" y1="100%" x2="33.3%" y2="0%"><stop offset="-10%" stop-color="#fea82f" stop-opacity="1"></stop><stop offset="110%" stop-color="#fea82f" stop-opacity="1"></stop></linearGradient></defs><defs><linearGradient id="grad2_1" x1="0%" y1="100%" x2="33.3%" y2="0%"><stop offset="-10%" stop-color="#ffbe40" stop-opacity="1"></stop><stop offset="110%" stop-color="#fea82f" stop-opacity="1"></stop></linearGradient></defs><defs><linearGradient id="grad2_2" x1="0%" y1="100%" x2="33.3%" y2="0%"><stop offset="-10%" stop-color="#ffbe40" stop-opacity="1"></stop><stop offset="110%" stop-color="#ffd455" stop-opacity="1"></stop></linearGradient></defs><defs><linearGradient id="grad2_3" x1="0%" y1="100%" x2="33.3%" y2="0%"><stop offset="-10%" stop-color="#ffe96c" stop-opacity="1"></stop><stop offset="110%" stop-color="#ffd455" stop-opacity="1"></stop></linearGradient></defs><defs><linearGradient id="grad2_4" x1="0%" y1="100%" x2="33.3%" y2="0%"><stop offset="-10%" stop-color="#ffe96c" stop-opacity="1"></stop><stop offset="110%" stop-color="#fffd86" stop-opacity="1"></stop></linearGradient></defs><g transform="translate(900, 300)"><path d="M-263 0C-278.9 -33.6 -294.8 -67.2 -285.3 -92.7C-275.8 -118.2 -240.9 -135.7 -218.4 -158.7C-195.9 -181.7 -185.8 -210.4 -165.2 -227.3C-144.5 -244.3 -113.3 -249.5 -84.1 -258.7C-54.8 -267.8 -27.4 -280.9 0 -294L0 0Z" fill="#fff379"></path><path d="M-210.4 0C-223.1 -26.9 -235.8 -53.8 -228.3 -74.2C-220.7 -94.6 -192.7 -108.5 -174.7 -127C-156.7 -145.4 -148.7 -168.3 -132.1 -181.9C-115.6 -195.4 -90.7 -199.6 -67.2 -206.9C-43.8 -214.3 -21.9 -224.7 0 -235.2L0 0Z" fill="#ffde60"></path><path d="M-157.8 0C-167.3 -20.2 -176.9 -40.3 -171.2 -55.6C-165.5 -70.9 -144.6 -81.4 -131.1 -95.2C-117.6 -109 -111.5 -126.2 -99.1 -136.4C-86.7 -146.6 -68 -149.7 -50.4 -155.2C-32.9 -160.7 -16.4 -168.6 0 -176.4L0 0Z" fill="#ffc94a"></path><path d="M-105.2 0C-111.6 -13.4 -117.9 -26.9 -114.1 -37.1C-110.3 -47.3 -96.4 -54.3 -87.4 -63.5C-78.4 -72.7 -74.3 -84.2 -66.1 -90.9C-57.8 -97.7 -45.3 -99.8 -33.6 -103.5C-21.9 -107.1 -11 -112.4 0 -117.6L0 0Z" fill="#feb337"></path><path d="M-52.6 0C-55.8 -6.7 -59 -13.4 -57.1 -18.5C-55.2 -23.6 -48.2 -27.1 -43.7 -31.7C-39.2 -36.3 -37.2 -42.1 -33 -45.5C-28.9 -48.9 -22.7 -49.9 -16.8 -51.7C-11 -53.6 -5.5 -56.2 0 -58.8L0 0Z" fill="#fea82f"></path></g><g transform="translate(0, 0)"><path d="M300 0C287.1 28.8 274.3 57.6 262.5 85.3C250.7 113 240 139.5 224.1 162.8C208.2 186.1 187.3 206.2 164 225.7C140.7 245.2 115.2 264.2 87.5 269.1C59.7 274.1 29.9 265.1 0 256L0 0Z" fill="#fff379"></path><path d="M240 0C229.7 23 219.4 46.1 210 68.2C200.6 90.4 192 111.6 179.3 130.3C166.6 148.9 149.8 165 131.2 180.6C112.6 196.2 92.1 211.4 70 215.3C47.8 219.3 23.9 212 0 204.8L0 0Z" fill="#ffde60"></path><path d="M180 0C172.3 17.3 164.6 34.6 157.5 51.2C150.4 67.8 144 83.7 134.5 97.7C124.9 111.7 112.4 123.7 98.4 135.4C84.4 147.1 69.1 158.5 52.5 161.5C35.8 164.5 17.9 159 0 153.6L0 0Z" fill="#ffc94a"></path><path d="M120 0C114.9 11.5 109.7 23 105 34.1C100.3 45.2 96 55.8 89.6 65.1C83.3 74.5 74.9 82.5 65.6 90.3C56.3 98.1 46.1 105.7 35 107.7C23.9 109.6 11.9 106 0 102.4L0 0Z" fill="#feb337"></path><path d="M60 0C57.4 5.8 54.9 11.5 52.5 17.1C50.1 22.6 48 27.9 44.8 32.6C41.6 37.2 37.5 41.2 32.8 45.1C28.1 49 23 52.8 17.5 53.8C11.9 54.8 6 53 0 51.2L0 0Z" fill="#fea82f"></path></g></svg>